<svg width="72" height="72" viewBox="0 0 72 72" fill="none" xmlns="http://www.w3.org/2000/svg">
	<path d="M59.0166 28.7186C55.4891 28.7186 52.6189 31.5888 52.6189 35.1163C52.6189 38.6437 55.4891 41.514 59.0166 41.514C62.544 41.514 65.4143 38.6437 65.4143 35.1163C65.4143 31.5888 62.544 28.7186 59.0166 28.7186Z" fill="white" style="fill:white;fill-opacity:1;"/>
	<path d="M69.4987 13H50.4644C42.9745 13 36.9038 19.0707 36.9038 26.5605V59.5364H48.5371V26.5637C48.5371 25.5001 49.4007 24.6365 50.4644 24.6365H69.5018V13H69.4987Z" fill="white" style="fill:white;fill-opacity:1;"/>
	<path d="M2.00317 13H21.0375C28.5274 13 34.598 19.0707 34.598 26.5605V59.5364H22.9647V26.5637C22.9647 25.5001 22.1011 24.6365 21.0375 24.6365H2V13H2.00317Z" fill="white" style="fill:white;fill-opacity:1;"/>
</svg>
