<?xml version="1.0" encoding="UTF-8"?>
<svg id="_레이어_1" data-name="레이어 1" xmlns="http://www.w3.org/2000/svg" viewBox="0 0 100 80">
  <defs>
    <style>
      .cls-1 {
        fill: #666666;
      }

      .cls-1, .cls-2 {
        stroke-width: 0px;
      }

      .cls-2 {
        fill: #999999;
      }
    </style>
  </defs>
  <g>
    <path class="cls-2" d="M80.94,29.96c-4.69,0-8.51,3.82-8.51,8.51s3.82,8.51,8.51,8.51,8.5-3.82,8.5-8.51-3.82-8.51-8.5-8.51Z"/>
    <path class="cls-2" d="M94.87,9.06h-25.31c-9.96,0-18.03,8.07-18.03,18.03v43.84h15.47V27.1c0-1.42,1.15-2.56,2.56-2.56h25.31v-15.47Z"/>
  </g>
  <path class="cls-1" d="M5.13,9.06h25.31c9.96,0,18.03,8.07,18.03,18.03v43.84h-15.47V27.1c0-1.42-1.15-2.56-2.56-2.56H5.13v-15.47Z"/>
</svg>
