<svg xmlns="http://www.w3.org/2000/svg" xmlns:xlink="http://www.w3.org/1999/xlink" width="15" height="17" viewBox="0 0 15 17">
  <g>
    <path fill="#FFF" d="M14,1 L14,11.5 L13.995101,11.7118014 C13.8844656,14.0983636 11.9138617,16 9.5,16 L1,16 L1,5.5 C1,3.01514237 3.01514237,1 5.5,1 L14,1 Z"/>
    <path fill="#6182D6" fill-rule="nonzero" d="M15,11.5 L15,0 L5.5,0 C2.46285763,0 0,2.46285763 0,5.5 L0,17 L9.5,17 C12.5371424,17 15,14.5371424 15,11.5 Z M14,1 L14,11.5 L13.995101,11.7118014 C13.8844656,14.0983636 11.9138617,16 9.5,16 L1,16 L1,5.5 C1,3.01514237 3.01514237,1 5.5,1 L14,1 Z"/>
    <path fill="#6182D6" d="M12.444,4.872 L12.067,5.738 L9.873,4.685 L10.249,3.819 C10.363,3.556 10.606,3.416 10.792,3.505 L12.314,4.236 C12.5,4.325 12.558,4.609 12.444,4.872 Z M9.516,11.606 L7.322,10.554 L9.764,4.936 L11.958,5.989 L9.516,11.606 Z M7.442,13.499 L7.213,10.805 L9.407,11.858 L7.442,13.499 Z M2.504,12.496 L6.667,12.496 L6.667,13.5 L2.504,13.5 L2.504,12.496 Z M2.5,9.5 L6.656,9.5 L6.656,10.5 L2.5,10.5 L2.5,9.5 Z M2.5,6.5 L6.656,6.5 L6.656,7.5 L2.5,7.5 L2.5,6.5 Z"/>
  </g>
</svg>
