<svg xmlns="http://www.w3.org/2000/svg" xmlns:xlink="http://www.w3.org/1999/xlink" width="15" height="17" viewBox="0 0 15 17">
  <g>
    <path fill="#E35D4B" fill-rule="nonzero" d="M15,11.5 L15,0 L5.5,0 C2.46285763,0 0,2.46285763 0,5.5 L0,17 L9.5,17 C12.5371424,17 15,14.5371424 15,11.5 Z M14,1 L14,11.5 L13.995101,11.7118014 C13.8844656,14.0983636 11.9138617,16 9.5,16 L1,16 L1,5.5 C1,3.01514237 3.01514237,1 5.5,1 L14,1 Z"/>
    <path fill="#FFF" d="M14,1 L14,11.5 L13.995101,11.7118014 C13.8844656,14.0983636 11.9138617,16 9.5,16 L1,16 L1,5.5 C1,3.01514237 3.01514237,1 5.5,1 L14,1 Z"/>
    <path fill="#E35D4B" d="M10.573 10.5L10.573 9.5 12.573 9.5 12.573 10.5 10.573 10.5zM10.573 6.5L12.573 6.5 12.573 7.5 10.573 7.5 10.573 6.5zM2.5 12.5L10.5 12.5 10.5 13.5 2.5 13.5 2.5 12.5zM6.375 4.5L6.375 7.562 9.466 7.562C9.48 7.708 9.5 7.852 9.5 8 9.5 9.933 7.933 11.5 6 11.5 4.067 11.5 2.5 9.933 2.5 8 2.5 6.067 3.692 4.312 6.375 4.312 6.61366667 4.312 6.61366667 4.37466667 6.375 4.5z"/>
  </g>
</svg>
