<svg width="48" height="48" viewBox="0 0 48 48" fill="none" xmlns="http://www.w3.org/2000/svg">
	<path d="M11 4C11 2.89543 11.8954 2 13 2H35.1716C35.702 2 36.2107 2.21071 36.5858 2.58579L44.4142 10.4142C44.7893 10.7893 45 11.298 45 11.8284V44C45 45.1046 44.1046 46 43 46H13C11.8954 46 11 45.1046 11 44V4Z" fill="#ECEEFF" style="fill:#ECEEFF;fill:color(display-p3 0.9247 0.9346 1.0000);fill-opacity:1;"/>
	<g style="mix-blend-mode:multiply" opacity="0.22">
		<path opacity="0.8" fill-rule="evenodd" clip-rule="evenodd" d="M39 25H27V22H39V25Z" fill="#6479FF" style="fill:#6479FF;fill:color(display-p3 0.3922 0.4745 1.0000);fill-opacity:1;"/>
		<path opacity="0.8" fill-rule="evenodd" clip-rule="evenodd" d="M39 30H27V27H39V30Z" fill="#6479FF" style="fill:#6479FF;fill:color(display-p3 0.3922 0.4745 1.0000);fill-opacity:1;"/>
		<path opacity="0.8" fill-rule="evenodd" clip-rule="evenodd" d="M39 35H27V32H39V35Z" fill="#6479FF" style="fill:#6479FF;fill:color(display-p3 0.3922 0.4745 1.0000);fill-opacity:1;"/>
	</g>
	<path fill-rule="evenodd" clip-rule="evenodd" d="M11 4C11 2.89543 11.8954 2 13 2H35.1716C35.702 2 36.2107 2.21071 36.5858 2.58579L44.4142 10.4142C44.7893 10.7893 45 11.298 45 11.8284V44C45 45.1046 44.1046 46 43 46H13C11.8954 46 11 45.1046 11 44V4ZM13 3.2H35.1716C35.2859 3.2 35.3977 3.22448 35.5 3.27052V10.5C35.5 11.0523 35.9477 11.5 36.5 11.5H43.7295C43.7755 11.6023 43.8 11.7141 43.8 11.8284V44C43.8 44.4418 43.4418 44.8 43 44.8H13C12.5582 44.8 12.2 44.4418 12.2 44V4C12.2 3.55817 12.5582 3.2 13 3.2Z" fill="#9FACFF" style="fill:#9FACFF;fill:color(display-p3 0.6230 0.6751 1.0000);fill-opacity:1;"/>
	<path d="M3 14.3077C3 11.9286 4.92862 10 7.30769 10H26.6923C29.0714 10 31 11.9286 31 14.3077V33.6923C31 36.0714 29.0714 38 26.6923 38H7.30769C4.92862 38 3 36.0714 3 33.6923V14.3077Z" fill="#6479FF" style="fill:#6479FF;fill:color(display-p3 0.3922 0.4745 1.0000);fill-opacity:1;"/>
	<path fill-rule="evenodd" clip-rule="evenodd" d="M19.8724 17.6438L10.9219 26.5753L9 31.6164L9.38438 32L14.4362 30.0822L23.3867 21.1507L19.8724 17.6438ZM11.1415 30.2466L11.3063 30.0822L10.9219 29.6986L10.7572 29.863L11.6906 27.3973L13.6125 29.3151L11.1415 30.2466ZM24.5399 17.6438L23.3867 16.4932C22.7278 15.8356 21.6845 15.8356 21.0805 16.4932L20.6961 16.8767L24.2104 20.3836L24.1555 20.4384L24.5948 20C25.1439 19.3425 25.1439 18.3014 24.5399 17.6438Z" fill="white" style="fill:white;fill-opacity:1;"/>
</svg>
