<svg width="48" height="48" viewBox="0 0 48 48" fill="none" xmlns="http://www.w3.org/2000/svg">
	<path d="M11 4C11 2.89543 11.8954 2 13 2H35.1716C35.702 2 36.2107 2.21071 36.5858 2.58579L44.4142 10.4142C44.7893 10.7893 45 11.298 45 11.8284V44C45 45.1046 44.1046 46 43 46H13C11.8954 46 11 45.1046 11 44V4Z" fill="#FFEEE6" style="fill:#FFEEE6;fill:color(display-p3 1.0000 0.9328 0.9038);fill-opacity:1;"/>
	<path fill-rule="evenodd" clip-rule="evenodd" d="M11 4C11 2.89543 11.8954 2 13 2H35.1716C35.702 2 36.2107 2.21071 36.5858 2.58579L44.4142 10.4142C44.7893 10.7893 45 11.298 45 11.8284V44C45 45.1046 44.1046 46 43 46H13C11.8954 46 11 45.1046 11 44V4ZM13 3.2H35.1716C35.2859 3.2 35.3977 3.22448 35.5 3.27052V10.5C35.5 11.0523 35.9477 11.5 36.5 11.5H43.7295C43.7755 11.6023 43.8 11.7141 43.8 11.8284V44C43.8 44.4418 43.4418 44.8 43 44.8H13C12.5582 44.8 12.2 44.4418 12.2 44V4C12.2 3.55817 12.5582 3.2 13 3.2Z" fill="#FFA984" style="fill:#FFA984;fill:color(display-p3 1.0000 0.6639 0.5180);fill-opacity:1;"/>
	<g style="mix-blend-mode:multiply" opacity="0.22">
		<path opacity="0.8" fill-rule="evenodd" clip-rule="evenodd" d="M39 25H26V22H39V25Z" fill="#FD7940" style="fill:#FD7940;fill:color(display-p3 0.9922 0.4745 0.2510);fill-opacity:1;"/>
		<path opacity="0.8" fill-rule="evenodd" clip-rule="evenodd" d="M39 30H26V27H39V30Z" fill="#FD7940" style="fill:#FD7940;fill:color(display-p3 0.9922 0.4745 0.2510);fill-opacity:1;"/>
		<path opacity="0.8" fill-rule="evenodd" clip-rule="evenodd" d="M39 35H26V32H39V35Z" fill="#FD7940" style="fill:#FD7940;fill:color(display-p3 0.9922 0.4745 0.2510);fill-opacity:1;"/>
	</g>
	<path d="M3 14.3077C3 11.9286 4.92862 10 7.30769 10H26.6923C29.0714 10 31 11.9286 31 14.3077V33.6923C31 36.0714 29.0714 38 26.6923 38H7.30769C4.92862 38 3 36.0714 3 33.6923V14.3077Z" fill="#FD7940" style="fill:#FD7940;fill:color(display-p3 0.9922 0.4745 0.2510);fill-opacity:1;"/>
	<path fill-rule="evenodd" clip-rule="evenodd" d="M16.4632 16.9946C15.0863 16.9944 13.7402 17.4024 12.5952 18.1672C11.4501 18.932 10.5576 20.0191 10.0304 21.2911C9.50327 22.5631 9.36515 23.9628 9.63352 25.3133C9.9019 26.6638 10.5647 27.9044 11.5382 28.8782C12.5117 29.8521 13.752 30.5153 15.1025 30.7842C16.4529 31.0531 17.8527 30.9155 19.1249 30.3888C20.3972 29.8621 21.4846 28.97 22.2498 27.8253C23.015 26.6805 23.4236 25.3346 23.4238 23.9577H16.4632V16.9946Z" fill="white" style="fill:white;fill-opacity:1;"/>
	<path fill-rule="evenodd" clip-rule="evenodd" d="M18.8857 16C19.623 16 20.3531 16.1452 21.0343 16.4274C21.7155 16.7095 22.3344 17.1231 22.8558 17.6444C23.3771 18.1657 23.7907 18.7847 24.0728 19.4658C24.355 20.147 24.5002 20.8771 24.5002 21.6144H18.8857V16Z" fill="white" style="fill:white;fill-opacity:1;"/>
</svg>