<svg xmlns="http://www.w3.org/2000/svg" xmlns:xlink="http://www.w3.org/1999/xlink" width="15" height="17" viewBox="0 0 15 17">
  <g>
    <path fill="#289B6E" fill-rule="nonzero" d="M15,11.5 L15,0 L5.5,0 C2.46285763,0 0,2.46285763 0,5.5 L0,17 L9.5,17 C12.5371424,17 15,14.5371424 15,11.5 Z M14,1 L14,11.5 L13.995101,11.7118014 C13.8844656,14.0983636 11.9138617,16 9.5,16 L1,16 L1,5.5 C1,3.01514237 3.01514237,1 5.5,1 L14,1 Z"/>
    <path fill="#FFF" d="M14,1 L14,11.5 L13.995101,11.7118014 C13.8844656,14.0983636 11.9138617,16 9.5,16 L1,16 L1,5.5 C1,3.01514237 3.01514237,1 5.5,1 L14,1 Z"/>
    <path fill="#289B6E" d="M9.492,13 L9.492,7 L11.502,7 L11.502,13 L9.492,13 Z M6.512,4 L8.49,4 L8.49,13 L6.481,13 L6.512,4 Z M3.5,8.969 L5.478,8.969 L5.478,12.938 L3.5,12.938 L3.5,8.969 Z"/>
  </g>
</svg>
